# xmcd
#
# Track frame offsets:
#	150
#	11686
#	19145
#	33269
#	42331
#	50237
#	55898
#	68241
#	79546
#	90877
#
# Disc length: 1395 seconds
#
# Revision: 0
# Processed by: cddbd v1.5.2PL0 Copyright (c) Steve Scherf et al.
# Submitted via: audiograbber 1.83.01
#
DISCID=7605710a
DTITLE=George Jones - Your Tender Years
DYEAR=1993
DGENRE=Country
TTITLE0=Your Tender Years
TTITLE1=Ragged, But Right
TTITLE2=Open Pit Mine
TTITLE3=Jonesy
TTITLE4=Yes, I Know Why
TTITLE5=Liberty
TTITLE6=I Can't Escape From You
TTITLE7=From Now On All My Friends Are Gonna Be Strangers
TTITLE8=World Of Forgotten People
TTITLE9=Things Have Gone To Pieces
EXTD=
EXTT0=
EXTT1=
EXTT2=
EXTT3=
EXTT4=
EXTT5=
EXTT6=
EXTT7=
EXTT8=
EXTT9=
PLAYORDER=
